<?xml version="1.0" standalone="no"?>
<!DOCTYPE svg PUBLIC "-//W3C//DTD SVG 20010904//EN"
 "http://www.w3.org/TR/2001/REC-SVG-20010904/DTD/svg10.dtd">
<svg version="1.0" xmlns="http://www.w3.org/2000/svg"
 width="200.000000pt" height="200.000000pt" viewBox="0 0 200.000000 200.000000"
 preserveAspectRatio="xMidYMid meet">
<metadata>
Created by potrace 1.14, written by Peter Selinger 2001-2017
</metadata>
<g transform="translate(0.000000,200.000000) scale(0.100000,-0.100000)"
fill="#000000" stroke="none">
<path d="M805 1823 c-11 -3 -44 -21 -74 -40 -30 -20 -76 -42 -102 -49 -69 -21
-129 -99 -129 -171 0 -7 -20 -40 -44 -75 -59 -85 -82 -132 -95 -198 -10 -48
-8 -67 13 -155 34 -137 42 -156 62 -148 15 5 16 2 10 -27 -3 -18 -7 -34 -9
-35 -1 -2 -36 -5 -77 -8 -41 -4 -76 -7 -78 -7 -1 0 4 -16 12 -35 9 -20 15 -39
16 -43 0 -4 3 -15 6 -24 2 -9 -9 -46 -25 -82 l-30 -66 85 1 c47 1 88 -1 90 -4
3 -3 7 -25 9 -49 4 -67 5 -68 13 -66 4 1 32 -1 62 -5 30 -4 80 -10 110 -13 51
-5 60 -10 117 -67 35 -34 67 -61 72 -60 5 2 13 -7 17 -20 4 -12 24 -40 45 -62
21 -22 60 -64 87 -94 l50 -54 66 69 c36 38 69 79 72 91 3 13 10 20 16 17 10
-6 44 30 110 117 47 62 31 56 198 75 78 9 80 11 81 62 1 26 1 50 0 55 -1 8 28
10 117 8 34 -1 62 2 62 6 0 5 -13 35 -29 68 l-28 59 18 55 c11 30 19 55 19 57
0 5 -55 14 -92 16 -43 1 -45 6 -22 50 16 31 46 120 58 171 4 16 7 58 7 94 1
71 -26 140 -96 244 -19 28 -35 59 -35 69 0 26 -21 82 -41 111 -18 26 -70 57
-108 64 -10 2 -42 21 -71 43 -29 22 -73 46 -97 52 -50 15 -139 8 -178 -13 -25
-12 -32 -12 -59 2 -31 15 -144 24 -181 14z"/>
</g>
</svg>
